# xmcd CD database file
#
# Track frame offsets:
#	187
#	15627
#	40807
#	52587
#	66805
#	85495
#	102735
#	119890
#	137525
#	159477
#	178247
#	193692
#	206165
#	221485
#	233472
#	251242
#
# Disc length: 3593 seconds
#
# Revision: 0
# Processed by: cddbd v1.5PL3 Copyright (c) Steve Scherf et al.
# Submitted via: CDex 1.51
#
DISCID=e90e0710
DTITLE=Various Artist - NEW MUSIC SELECTION 8
DYEAR=1988
DGENRE=Tribal
TTITLE0=井上陽水 - 心もよう
TTITLE1=井上陽水 - 傘がない
TTITLE2=井上陽水 - 夕立
TTITLE3=井上陽水 - 感謝知らずの女
TTITLE4=海援隊 - 贈る言葉
TTITLE5=海援隊 - 恋不思議
TTITLE6=海援隊 - 遥かなる人
TTITLE7=加藤登紀子 - 灰色の瞳
TTITLE8=加藤登紀子 - 百万本のバラ
TTITLE9=加藤登紀子 - 難破船
TTITLE10=小椋佳 - 少しは私に愛を下さい
TTITLE11=小椋佳 - さらば青春
TTITLE12=小椋佳 - 大いなる旅路
TTITLE13=井上陽水 - 夢の中へ
TTITLE14=井上陽水 - 断絶
TTITLE15=井上陽水 - 氷の世界
EXTD=YEAR: 1988
EXTT0=
EXTT1=
EXTT2=
EXTT3=
EXTT4=
EXTT5=
EXTT6=
EXTT7=
EXTT8=
EXTT9=
EXTT10=
EXTT11=
EXTT12=
EXTT13=
EXTT14=
EXTT15=
PLAYORDER=
